Coordinates
version=1
nRows=10
nColumns=22
inDegrees=yes

Units are S.I. units (second, meters, Newtons, ...)
If the header above contains a line with 'inDegrees', this indicates whether rotational values are in degrees (yes) or radians (no).

endheader
time	pelvis_tilt	pelvis_list	pelvis_rotation	pelvis_tx	pelvis_ty	pelvis_tz	hip_flexion_r	hip_adduction_r	hip_rotation_r	knee_angle_r	ankle_angle_r	subtalar_angle_r	hip_flexion_l	hip_adduction_l	hip_rotation_l	knee_angle_l	ankle_angle_l	subtalar_angle_l	lumbar_extension	lumbar_bending	lumbar_rotation
      3.88000000	      4.59099685	      0.74218158	      2.55438347	      0.62825590	      0.99249494	     -0.19978134	     20.69145033	      0.40694412	     -8.12411404	    -14.41512846	     -2.17617061	      8.32246059	     -7.10348817	      4.14031473	     -5.83047166	    -25.15106426	     18.50330602	     -0.37027448	    -15.01806023	     -2.33377277	     -2.67435427
      3.89000000	      4.58148513	      0.67606607	      2.84774091	      0.63697575	      0.99165472	     -0.19967698	     20.70171041	      0.48893696	     -8.18310490	    -15.22503278	     -2.51063840	      7.08402879	     -7.30208715	      3.94264268	     -5.45268039	    -25.77259041	     18.41566350	      0.02206413	    -14.84506614	     -2.11856013	     -2.80160065
      3.90000000	      4.55699400	      0.57143853	      3.11037428	      0.64567106	      0.99089990	     -0.19957418	     20.79223335	      0.59979386	     -8.18671231	    -16.16966275	     -3.00365706	      5.67616322	     -7.45862663	      3.71830590	     -5.06073839	    -26.42684533	     18.27542508	      0.41740664	    -14.66071070	     -1.85297572	     -2.88701166
      3.91000000	      4.52517994	      0.43688535	      3.30755816	      0.65433576	      0.99025448	     -0.19940860	     20.96567464	      0.74448095	     -8.11126113	    -17.25426502	     -3.52269375	      4.18230102	     -7.57964719	      3.47763070	     -4.71096690	    -27.11556779	     18.06306585	      0.83133722	    -14.47597908	     -1.55801472	     -2.90838901
      3.92000000	      4.49330085	      0.27635742	      3.42920565	      0.66297707	      0.98974345	     -0.19916996	     21.20218366	      0.92577769	     -7.95336833	    -18.45542225	     -3.94018870	      2.74281827	     -7.67340220	      3.22562364	     -4.42355792	    -27.83849592	     17.77266457	      1.27027521	    -14.29965690	     -1.23756008	     -2.86732267
      3.93000000	      4.45531416	      0.07347932	      3.47096383	      0.67161145	      0.98936715	     -0.19883031	     21.47089380	      1.17502391	     -7.68836362	    -19.70495661	     -4.19940213	      1.47928864	     -7.72450027	      2.94043162	     -4.22445629	    -28.61313673	     17.40102215	      1.73126795	    -14.12127246	     -0.87668510	     -2.75896690
      3.94000000	      4.46228068	     -0.11436268	      3.45360539	      0.68025360	      0.98922242	     -0.19844027	     21.69837777	      1.42064946	     -7.41693405	    -20.98745969	     -4.23395050	      0.35292948	     -7.80954634	      2.67935829	     -4.08841719	    -29.39932437	     16.91717039	      2.27829196	    -14.00652199	     -0.53221462	     -2.63126216
      3.95000000	      4.47619584	     -0.33918454	      3.37046092	      0.68892269	      0.98924748	     -0.19792697	     21.86298215	      1.73691632	     -7.08613173	    -22.17891082	     -4.10453164	     -0.51747767	     -7.86303935	      2.37379493	     -4.06733792	    -30.24478885	     16.33919069	      2.85466954	    -13.90184824	     -0.15720864	     -2.45903435
      3.96000000	      4.50390367	     -0.59161918	      3.23593808	      0.69764346	      0.98945836	     -0.19730395	     21.91852142	      2.10942979	     -6.74211706	    -23.21814536	     -3.78391109	     -1.17375281	     -7.90344302	      2.03298455	     -4.12462951	    -31.13128538	     15.65904054	      3.46065631	    -13.81117289	      0.24063072	     -2.25789261
      3.97000000	      4.54688131	     -0.83486821	      3.11584986	      0.70634093	      0.98986451	     -0.19666504	     21.85363736	      2.46199523	     -6.51390355	    -24.08931230	     -3.37246052	     -1.72126020	     -7.91117760	      1.67702877	     -4.22306399	    -32.08225715	     14.83924326	      4.22551177	    -13.74735819	      0.62366514	     -2.11514667
